<?xml version="1.0" encoding="utf-8"?>
<!-- Generator: Adobe Illustrator 16.0.0, SVG Export Plug-In . SVG Version: 6.00 Build 0)  -->
<!DOCTYPE svg PUBLIC "-//W3C//DTD SVG 1.1//EN" "http://www.w3.org/Graphics/SVG/1.1/DTD/svg11.dtd">
<svg version="1.1" id="Layer_1" xmlns="http://www.w3.org/2000/svg" xmlns:xlink="http://www.w3.org/1999/xlink" x="0px" y="0px"
	 width="60px" height="75px" viewBox="0 0 60 75" enable-background="new 0 0 60 75" xml:space="preserve">
<g>
	<g>
		<path fill="#D11F42" d="M22.55,53.04c2.52-1.374,6.039-2.844,9.023-4.585c4.555-2.654,8.712-6.218,10.865-9.438
			c0,0-5.862,12.166-13.522,18.704c-7.66,6.533-13.404,4.167-11.038-0.676C18.545,55.678,20.056,54.404,22.55,53.04"/>
	</g>
	<g>
		<path fill="#D11F42" d="M4.326,70.643c0,0,2.062-2.068,5.576-3.661c3.07-1.391,8-1.576,13.294-4.393
			c-8.094,2.274-9.135-3.73-7.344-5.546c0,0,2.786-3.126,5.743-5.293c2.957-2.172,8.675-2.818,14.197-8.564
			c5.518-5.745,15.883-25.8,17.013-29.856C47.618,15.812,29.821,27.3,22.835,43.076C15.85,58.849,12.132,55.582,12.132,55.582
			s-1.106,0.034-1.753,1.114c-1.33,2.229-6.209,8.314-6.956,10.34C2.007,70.888,4.326,70.643,4.326,70.643"/>
	</g>
	<g>
		<path fill="#D11F42" d="M20.561,43.859c3.859-8.535,12.393-17.802,14.477-19.549c-3.998,1.859-12.225,7.149-15.377,13.24
			c-3.153,6.086-2.932,10.815-6.089,14.646C13.571,52.196,16.484,52.869,20.561,43.859"/>
	</g>
	<g>
		<path fill="#D11F42" d="M48.541,13.5c5.494-4.31,8.705-10.393,8.705-10.393C54.373,5.81,44.571,10.036,37.475,13.92
			c-7.1,3.89-9.888,9.845-13.352,16.226C28.517,25.246,43.049,17.81,48.541,13.5"/>
	</g>
</g>
</svg>
