<?xml version="1.0" encoding="utf-8"?>
<!-- Generator: Adobe Illustrator 16.0.0, SVG Export Plug-In . SVG Version: 6.00 Build 0)  -->
<!DOCTYPE svg PUBLIC "-//W3C//DTD SVG 1.1//EN" "http://www.w3.org/Graphics/SVG/1.1/DTD/svg11.dtd">
<svg version="1.1" xmlns="http://www.w3.org/2000/svg" xmlns:xlink="http://www.w3.org/1999/xlink" x="0px" y="0px" width="60px"
	 height="25px" viewBox="0 25 60 25" enable-background="new 0 25 60 25" xml:space="preserve">
<g id="Layer_1" display="none">
	<g display="inline">
		<g>
			<path fill="#D11F42" d="M22.55,53.04c2.52-1.374,6.039-2.845,9.023-4.585c4.555-2.654,8.712-6.219,10.864-9.438
				c0,0-5.861,12.166-13.521,18.703c-7.66,6.533-13.404,4.168-11.038-0.676C18.545,55.678,20.056,54.404,22.55,53.04"/>
		</g>
		<g>
			<path fill="#D11F42" d="M4.326,70.643c0,0,2.062-2.067,5.576-3.66c3.07-1.392,8-1.576,13.294-4.394
				c-8.094,2.274-9.135-3.729-7.344-5.546c0,0,2.786-3.126,5.743-5.293c2.957-2.172,8.675-2.818,14.197-8.564
				c5.519-5.745,15.883-25.8,17.013-29.855c-5.187,2.482-22.984,13.97-29.97,29.746C15.85,58.85,12.132,55.582,12.132,55.582
				s-1.106,0.034-1.753,1.113c-1.33,2.229-6.209,8.314-6.956,10.341C2.007,70.889,4.326,70.643,4.326,70.643"/>
		</g>
		<g>
			<path fill="#D11F42" d="M20.561,43.859c3.859-8.535,12.393-17.802,14.477-19.549c-3.998,1.859-12.225,7.149-15.377,13.24
				c-3.153,6.086-2.932,10.815-6.089,14.646C13.571,52.195,16.484,52.869,20.561,43.859"/>
		</g>
		<g>
			<path fill="#D11F42" d="M48.541,13.5c5.494-4.31,8.705-10.393,8.705-10.393C54.373,5.81,44.57,10.036,37.475,13.92
				c-7.1,3.89-9.888,9.845-13.352,16.226C28.517,25.246,43.049,17.81,48.541,13.5"/>
		</g>
	</g>
</g>
<g id="Layer_2">
	<g>
		<path fill="#404041" d="M1,42.043h0.757v4.134h1.248v0.688H1V42.043z"/>
		<path fill="#404041" d="M8.267,46.865H7.503l-0.131-0.876h-0.93l-0.13,0.876H5.615l0.772-4.822h1.109L8.267,46.865z M6.539,45.336
			h0.73l-0.365-2.438L6.539,45.336z"/>
		<path fill="#404041" d="M13.366,43.151v0.173c0,0.495-0.151,0.813-0.489,0.973c0.407,0.156,0.565,0.522,0.565,1.031v0.395
			c0,0.744-0.393,1.144-1.151,1.144h-1.192v-4.822h1.144C13.028,42.043,13.366,42.407,13.366,43.151z M11.856,42.73v1.276h0.297
			c0.281,0,0.454-0.125,0.454-0.511v-0.269c0-0.345-0.117-0.497-0.386-0.497H11.856z M11.856,44.695v1.481h0.434
			c0.255,0,0.393-0.117,0.393-0.476V45.28c0-0.447-0.145-0.585-0.489-0.585H11.856z"/>
		<path fill="#404041" d="M16.313,43.199c0-0.771,0.407-1.213,1.151-1.213c0.744,0,1.15,0.441,1.15,1.213v2.509
			c0,0.771-0.406,1.213-1.15,1.213c-0.744,0-1.151-0.441-1.151-1.213V43.199z M17.072,45.756c0,0.345,0.151,0.476,0.393,0.476
			s0.393-0.131,0.393-0.476v-2.604c0-0.345-0.151-0.475-0.393-0.475s-0.393,0.13-0.393,0.475V45.756z"/>
		<path fill="#404041" d="M23.168,46.865c-0.041-0.124-0.069-0.199-0.069-0.592v-0.758c0-0.447-0.152-0.614-0.497-0.614h-0.261
			v1.964h-0.758v-4.822h1.144c0.785,0,1.123,0.364,1.123,1.108v0.379c0,0.496-0.158,0.819-0.496,0.979
			c0.38,0.158,0.503,0.523,0.503,1.025v0.745c0,0.233,0.006,0.406,0.083,0.585L23.168,46.865L23.168,46.865z M22.341,42.73v1.482
			h0.297c0.283,0,0.455-0.124,0.455-0.509v-0.476c0-0.345-0.117-0.497-0.386-0.497L22.341,42.73L22.341,42.73z"/>
		<path fill="#404041" d="M29.285,46.865h-0.764l-0.131-0.876H27.46l-0.132,0.876h-0.695l0.772-4.822h1.108L29.285,46.865z
			 M27.557,45.336h0.73l-0.366-2.438L27.557,45.336z"/>
		<path fill="#404041" d="M31.635,42.043h2.344v0.688h-0.793v4.134h-0.759V42.73h-0.792V42.043z"/>
		<path fill="#404041" d="M36.726,43.199c0-0.771,0.407-1.213,1.15-1.213s1.15,0.441,1.15,1.213v2.509
			c0,0.771-0.407,1.213-1.15,1.213s-1.15-0.441-1.15-1.213V43.199z M37.484,45.756c0,0.345,0.151,0.476,0.392,0.476
			c0.241,0,0.393-0.131,0.393-0.476v-2.604c0-0.345-0.151-0.475-0.393-0.475c-0.24,0-0.392,0.13-0.392,0.475V45.756z"/>
		<path fill="#404041" d="M43.579,46.865c-0.041-0.124-0.068-0.199-0.068-0.592v-0.758c0-0.447-0.151-0.614-0.496-0.614h-0.262
			v1.964h-0.758v-4.822h1.145c0.785,0,1.122,0.364,1.122,1.108v0.379c0,0.496-0.157,0.819-0.495,0.979
			c0.379,0.158,0.502,0.523,0.502,1.025v0.745c0,0.233,0.008,0.406,0.084,0.585L43.579,46.865L43.579,46.865z M42.753,42.73v1.482
			h0.297c0.281,0,0.454-0.124,0.454-0.509v-0.476c0-0.345-0.117-0.497-0.386-0.497L42.753,42.73L42.753,42.73z"/>
		<path fill="#404041" d="M47.245,42.043h0.758v4.822h-0.758V42.043z"/>
		<path fill="#404041" d="M51.791,44.075h1.041v0.689h-1.041v1.412h1.31v0.688h-2.066v-4.822h2.066v0.688h-1.31V44.075z"/>
		<path fill="#404041" d="M57.068,41.986c0.737,0,1.116,0.441,1.116,1.213v0.153h-0.716v-0.201c0-0.345-0.139-0.475-0.38-0.475
			c-0.24,0-0.378,0.13-0.378,0.475c0,0.992,1.481,1.18,1.481,2.557c0,0.771-0.386,1.213-1.129,1.213c-0.745,0-1.13-0.441-1.13-1.213
			v-0.296h0.716v0.344c0,0.345,0.151,0.47,0.393,0.47s0.393-0.125,0.393-0.47c0-0.991-1.481-1.178-1.481-2.557
			C55.952,42.428,56.331,41.986,57.068,41.986z"/>
	</g>
	<g>
		<path fill="#404041" d="M4.851,27.665c1.744,0,2.936,1.032,2.936,2.501c0,1.032-0.873,1.919-1.686,2.079v0.014
			c0.989,0.132,2.34,1.135,2.34,2.588c0,1.76-1.221,2.996-3.358,2.996H1.026V27.665H4.851z M4.618,31.896
			c1.178,0,1.977-0.742,1.977-1.615c0-0.959-0.799-1.584-1.977-1.584H2.219v3.199H4.618z M5.01,36.811
			c1.25,0,2.195-0.757,2.195-1.979c0-1.164-1.033-1.992-2.269-1.992H2.219v3.971H5.01z"/>
		<path fill="#404041" d="M12.177,37.842V27.665h1.193v10.178L12.177,37.842L12.177,37.842z"/>
		<path fill="#404041" d="M22.294,27.461c2.923,0,5.292,2.225,5.292,5.292c0,3.069-2.369,5.293-5.292,5.293
			c-2.921,0-5.277-2.225-5.277-5.293C17.018,29.686,19.374,27.461,22.294,27.461z M22.294,36.884c2.298,0,4.057-1.688,4.057-4.131
			c0-2.472-1.759-4.129-4.057-4.129c-2.312,0-4.056,1.657-4.056,4.129C18.239,35.196,19.983,36.884,22.294,36.884z"/>
		<path fill="#404041" d="M39.523,27.665v10.178h-1.121l-4.521-6.091c-0.872-1.207-1.511-2.138-1.525-2.138h-0.015
			c-0.016,0,0.029,1.265,0.029,2.894v5.335h-1.193V27.665h1.121l4.521,6.077c0.77,1.032,1.511,2.094,1.526,2.094h0.014
			c0.015,0-0.029-1.366-0.029-2.821v-5.35H39.523z"/>
		<path fill="#404041" d="M43.97,37.842V27.665h1.192v10.178L43.97,37.842L43.97,37.842z"/>
		<path fill="#404041" d="M56.314,37.842l-3.854-5.219l-1.656,1.657v3.562H49.61V27.665h1.193v2.719c0,1.629-0.03,2.456-0.015,2.456
			h0.015c0.015,0,0.915-0.943,1.7-1.729l3.446-3.445h1.467l-4.157,4.158l4.463,6.02L56.314,37.842L56.314,37.842z"/>
	</g>
</g>
</svg>
